{"title":"Grand masti (2013) SCAMRip","uid":8919767,"size":1029635636,"categoryP":"video","categoryS":"movies","magnet":"?xt=urn:btih:27a478885dda36773e2ba2aeeb0220d41afc4133&amp;dn=Grand+masti+%282013%29+SCAMRip&amp;tr=udp%3A%2F%2Ftracker.openbittorrent.com%3A80&amp;tr=udp%3A%2F%2Fopen.demonii.com%3A1337&amp;tr=udp%3A%2F%2Ftracker.coppersurfer.tk%3A6969&amp;tr=udp%3A%2F%2Fexodus.desync.com%3A6969","seeders":0,"leechers":0,"uploader":"maps0014","files":1,"time":1379225223,"description":"Screen Shots....\n &lt;a href=&quot;\nhttp://www.amly.in/u/00Fue&quot; rel=&quot;nofollow&quot; target=&quot;_NEW&quot;&gt;\nhttp://www.amly.in/u/00Fue&lt;/a&gt; &lt;a href=&quot;\nhttp://www.amly.in/u/00Fuf&quot; rel=&quot;nofollow&quot; target=&quot;_NEW&quot;&gt;\nhttp://www.amly.in/u/00Fuf&lt;/a&gt; &lt;a href=&quot;\nhttp://www.amly.in/u/00Fug&quot; rel=&quot;nofollow&quot; target=&quot;_NEW&quot;&gt;\nhttp://www.amly.in/u/00Fug&lt;/a&gt;\n\n\n\n\nInformation:\n\nGeneral\nComplete name                            : Grand masti (2013) SCAMRip Hindi.avi\nFormat                                   : AVI\nFormat/Info                              : Audio Video Interleave\nFile size                                : 982 MiB\nDuration                                 : 2h 5mn\nOverall bit rate                         : 1 091 Kbps\nWriting application                      : Lavf53.32.100\n\nVideo\nID                                       : 0\nFormat                                   : MPEG-4 Visual\nFormat profile                           : Simple@L1\nFormat settings, BVOP                    : No\nFormat settings, QPel                    : No\nFormat settings, GMC                     : No warppoints\nFormat settings, Matrix                  : Default (H.263)\nCodec ID                                 : FMP4\nDuration                                 : 2h 5mn\nBit rate                                 : 758 Kbps\nWidth                                    : 352 pixels\nHeight                                   : 200 pixels\nDisplay aspect ratio                     : 1.920\nFrame rate                               : 25.000 fps\nColor space                              : YUV\nChroma subsampling                       : 4:2:0\nBit depth                                : 8 bits\nScan type                                : Progressive\nCompression mode                         : Lossy\nBits/(Pixel*Frame)                       : 0.431\nStream size                              : 682 MiB (69%)\nWriting library                          : Lavc53.61.100\n\nAudio\nID                                       : 1\nFormat                                   : MPEG Audio\nFormat version                           : Version 1\nFormat profile                           : Layer 3\nMode                                     : Joint stereo\nMode extension                           : MS Stereo\nCodec ID                                 : 55\nCodec ID/Hint                            : MP3\nDuration                                 : 2h 5mn\nBit rate mode                            : Constant\nBit rate                                 : 320 Kbps\nChannel(s)                               : 2 channels\nSampling rate                            : 48.0 KHz\nCompression mode                         : Lossy\nStream size                              : 288 MiB (29%)\nAlignment                                : Aligned on interleaves\nInterleave, duration                     : 24 ms (0.60 video frame)\nWriting library                          : LAME3.99.3\n\n","torrent":{"xt":"urn:btih:27a478885dda36773e2ba2aeeb0220d41afc4133","amp;dn":"Grand+masti+%282013%29+SCAMRip","amp;tr":["udp%3A%2F%2Ftracker.openbittorrent.com%3A80","udp%3A%2F%2Fopen.demonii.com%3A1337","udp%3A%2F%2Ftracker.coppersurfer.tk%3A6969","udp%3A%2F%2Fexodus.desync.com%3A6969"],"infoHash":"27a478885dda36773e2ba2aeeb0220d41afc4133","infoHashBuffer":{"type":"Buffer","data":[39,164,120,136,93,218,54,119,62,43,162,174,235,2,32,212,26,252,65,51]},"announce":[],"urlList":[]}}